<svg width="200" height="72" viewBox="0 0 200 72" fill="none" xmlns="http://www.w3.org/2000/svg">
<g clip-path="url(#clip0_1295_1069)">
<path d="M69.2199 28.2401L61.7799 26.4001V14.3801C61.7799 11.6201 60.0099 9.15012 57.3899 8.23012L35.0599 0.370117C33.6399 -0.129883 32.0799 -0.129883 30.6599 0.370117L8.33994 8.21012C5.70994 9.13012 3.93994 11.6001 3.93994 14.3601V42.0701C3.93994 56.2001 16.4099 63.4501 26.4399 69.2801C27.4699 69.8801 28.4899 70.4701 29.4599 71.0501C30.3399 71.5801 31.3199 71.8901 32.3999 71.9701C32.5499 71.9801 32.7099 71.9901 32.8599 71.9901C34.0599 71.9901 35.2199 71.6701 36.2599 71.0501C37.2399 70.4701 38.2599 69.8801 39.2899 69.2801C47.2099 64.6801 56.1399 59.4701 59.9299 50.8801C66.6299 47.9501 71.3999 41.3401 71.6199 33.7101C71.6199 33.5201 71.6199 33.3301 71.6199 33.1401V31.3001C71.6199 29.8501 70.6299 28.5801 69.2199 28.2301V28.2401ZM37.9199 66.9501C36.8799 67.5601 35.8599 68.1501 34.8699 68.7401C34.2599 69.1001 33.5599 69.2801 32.8599 69.2801V65.5701C32.8599 65.0201 32.6099 64.5001 32.1799 64.1601L31.4999 63.6101L12.6499 48.5101C8.73994 45.3801 6.68994 40.7301 6.66994 36.0301H6.64994V14.3701C6.64994 12.7601 7.68994 11.3201 9.22994 10.7801L31.5599 2.93012C32.4199 2.63012 33.3199 2.63012 34.1699 2.93012L56.4999 10.7801C58.0399 11.3201 59.0799 12.7601 59.0799 14.3701V25.7201C58.3599 25.5301 57.7199 25.0901 57.2899 24.4801L53.4599 18.9901C50.9599 15.4101 46.8799 13.2801 42.5199 13.2801H26.2999C23.6399 13.2801 21.1599 14.5801 19.6399 16.7701L11.6399 28.3101C7.66994 34.0401 8.81994 41.9501 14.2599 46.3201L33.1099 61.4201C34.5599 62.5801 36.3499 63.2001 38.1899 63.2001C38.6199 63.2001 39.0399 63.1701 39.4699 63.1001C41.7199 62.7401 43.7299 61.4301 44.9799 59.5201L47.2199 56.0801L47.6099 55.4801C48.2799 54.4501 48.3799 53.1601 47.8799 52.0401L47.7799 51.8101L45.3299 46.3701C44.9599 45.7201 45.1799 44.8901 45.8299 44.5201C46.4799 44.1501 47.3099 44.3701 47.6799 45.0201L50.6399 51.5601C50.9599 52.1401 51.5699 52.5001 52.2299 52.5001H52.2899C52.6599 52.5001 53.0299 52.4901 53.3899 52.4701C54.3799 52.4101 55.3399 52.2601 56.2899 52.0601C52.3299 58.5801 44.7399 63.0001 37.9399 66.9501H37.9199ZM46.3999 25.6101C46.3999 26.9001 45.3499 27.9501 44.0599 27.9501C42.7699 27.9501 41.7199 26.9001 41.7199 25.6101C41.7199 24.3201 42.7699 23.2701 44.0599 23.2701C45.3499 23.2701 46.3999 24.3201 46.3999 25.6101ZM53.2499 49.7601C58.6999 38.5001 58.8999 37.3001 47.4199 18.8001C46.9699 18.0701 46.4499 17.3401 45.9399 16.5801C48.0499 17.3001 49.9199 18.6701 51.2299 20.5401L55.0599 26.0301C55.8699 27.1901 57.0799 28.0201 58.4499 28.3601L60.1299 28.7801H60.1499L66.4099 30.3301C66.3999 30.4301 66.3799 30.5301 66.3799 30.6401C66.3799 32.1301 67.4699 33.3501 68.8899 33.5901C68.8899 33.6001 68.8899 33.6101 68.8899 33.6301C68.6399 42.1801 61.7699 49.2601 53.2399 49.7601H53.2499Z" fill="#006EEB"/>
<path d="M99.9801 35.9998H91.0801V13.7598H99.5601C104.26 13.7598 106.76 16.3498 106.76 19.4898C106.76 22.1798 105.13 23.8098 102.98 24.5798C105.35 24.9998 107.27 27.3598 107.27 30.0198C107.27 33.4098 104.52 35.9998 99.9701 35.9998H99.9801ZM99.2401 16.7398H94.7301V23.1098H99.2401C101.61 23.1098 103.05 21.9898 103.05 19.9398C103.05 17.8898 101.61 16.7398 99.2401 16.7398ZM99.5301 26.0798H94.7301V33.0198H99.6601C102.12 33.0198 103.63 31.7698 103.63 29.6298C103.63 27.4898 101.97 26.0798 99.5301 26.0798Z" fill="#006EEB"/>
<path d="M118.82 36.2901C113.76 36.2901 110.02 32.7101 110.02 27.1701C110.02 21.6301 113.6 18.0801 118.82 18.0801C124.04 18.0801 127.4 21.5701 127.4 26.7501C127.4 27.3601 127.37 27.9301 127.27 28.5401H113.8C114.06 31.4501 116.14 33.2101 118.82 33.2101C121.06 33.2101 122.31 32.1201 122.98 30.7501H126.92C125.93 33.8201 123.14 36.2901 118.82 36.2901ZM113.83 25.6001H123.59C123.53 22.8801 121.38 21.1501 118.66 21.1501C116.2 21.1501 114.21 22.8101 113.83 25.6001Z" fill="#006EEB"/>
<path d="M138.09 18.0801C141.07 18.0801 143.11 19.4901 144.2 20.9301V18.3701H147.88V36.0001H144.2V33.3801C143.08 34.8801 140.97 36.2901 138.02 36.2901C133.44 36.2901 129.76 32.5501 129.76 27.1101C129.76 21.6701 133.44 18.0901 138.08 18.0901L138.09 18.0801ZM138.86 21.2501C136.14 21.2501 133.52 23.3001 133.52 27.1101C133.52 30.9201 136.14 33.1301 138.86 33.1301C141.58 33.1301 144.2 30.9901 144.2 27.1801C144.2 23.3701 141.61 21.2601 138.86 21.2601V21.2501Z" fill="#006EEB"/>
<path d="M159.78 18.0801C162.66 18.0801 164.8 19.4201 165.89 20.9301V18.3701H169.57V36.2901C169.57 41.0901 166.47 44.7101 160.96 44.7101C156.26 44.7101 152.77 42.3701 152.32 38.4701H155.94C156.48 40.2901 158.44 41.5401 160.96 41.5401C163.78 41.5401 165.89 39.8101 165.89 36.2901V33.3501C164.77 34.8501 162.66 36.2901 159.78 36.2901C155.14 36.2901 151.46 32.5501 151.46 27.1101C151.46 21.6701 155.14 18.0901 159.78 18.0901V18.0801ZM160.55 21.2501C157.83 21.2501 155.21 23.3001 155.21 27.1101C155.21 30.9201 157.83 33.1301 160.55 33.1301C163.27 33.1301 165.89 30.9901 165.89 27.1801C165.89 23.3701 163.3 21.2601 160.55 21.2601V21.2501Z" fill="#006EEB"/>
<path d="M174.38 12.3198H178.03V35.9998H174.38V12.3198Z" fill="#006EEB"/>
<path d="M190.41 36.2901C185.35 36.2901 181.61 32.7101 181.61 27.1701C181.61 21.6301 185.19 18.0801 190.41 18.0801C195.63 18.0801 198.99 21.5701 198.99 26.7501C198.99 27.3601 198.96 27.9301 198.86 28.5401H185.39C185.65 31.4501 187.73 33.2101 190.41 33.2101C192.65 33.2101 193.9 32.1201 194.57 30.7501H198.51C197.52 33.8201 194.73 36.2901 190.41 36.2901ZM185.42 25.6001H195.18C195.12 22.8801 192.97 21.1501 190.25 21.1501C187.79 21.1501 185.8 22.8101 185.42 25.6001Z" fill="#006EEB"/>
<path d="M96.89 65.1898C93.14 65.1898 90.25 63.1398 90.25 59.8198H93.54C93.68 61.3598 94.75 62.5998 96.89 62.5998C99.03 62.5998 100.26 61.4398 100.26 59.8498C100.26 55.3098 90.3 58.2598 90.3 51.3498C90.3 48.0598 92.92 46.0098 96.75 46.0098C100.34 46.0098 102.88 47.8998 103.15 51.1098H99.75C99.64 49.8398 98.54 48.6798 96.59 48.6298C94.81 48.5798 93.43 49.4398 93.43 51.2498C93.43 55.4898 103.36 52.8398 103.36 59.6998C103.36 62.5098 101.07 65.2098 96.88 65.2098L96.89 65.1898Z" fill="#006EEB"/>
<path d="M113.41 65.2399C109.15 65.2399 105.99 62.2199 105.99 57.5499C105.99 52.8799 109.01 49.8799 113.41 49.8799C117.81 49.8799 120.64 52.8199 120.64 57.1999C120.64 57.7099 120.61 58.1999 120.53 58.7099H109.17C109.39 61.1699 111.14 62.6499 113.41 62.6499C115.3 62.6499 116.35 61.7299 116.92 60.5699H120.24C119.4 63.1599 117.05 65.2399 113.41 65.2399ZM109.2 56.2199H117.43C117.38 53.9299 115.57 52.4699 113.27 52.4699C111.19 52.4699 109.52 53.8699 109.19 56.2199H109.2Z" fill="#006EEB"/>
<path d="M129.93 49.8801C133.57 49.8801 135.95 51.6901 136.79 54.8201H133.47C132.96 53.3901 131.77 52.4701 129.93 52.4701C127.45 52.4701 125.8 54.3001 125.8 57.5401C125.8 60.7801 127.45 62.6401 129.93 62.6401C131.76 62.6401 132.9 61.8301 133.47 60.2901H136.79C135.95 63.2101 133.58 65.2301 129.93 65.2301C125.66 65.2301 122.64 62.2101 122.64 57.5401C122.64 52.8701 125.66 49.8701 129.93 49.8701V49.8801Z" fill="#006EEB"/>
<path d="M153.34 64.9999H150.26V63.2199C149.29 64.4899 147.61 65.2199 145.86 65.2199C142.38 65.2199 139.73 63.0299 139.73 58.8799V50.1299H142.78V58.4199C142.78 61.1499 144.26 62.5499 146.51 62.5499C148.76 62.5499 150.26 61.1499 150.26 58.4199V50.1299H153.34V64.9999Z" fill="#006EEB"/>
<path d="M160.47 65.0001H157.39V50.1301H160.47V52.2901C161.33 50.8101 162.82 49.8901 164.92 49.8901V53.0801H164.14C161.87 53.0801 160.47 54.0201 160.47 57.1801V65.0101V65.0001Z" fill="#006EEB"/>
<path d="M167.36 46.1902C167.36 45.0802 168.22 44.2202 169.33 44.2202C170.44 44.2202 171.27 45.0802 171.27 46.1902C171.27 47.3002 170.41 48.1602 169.33 48.1602C168.25 48.1602 167.36 47.3002 167.36 46.1902ZM167.77 50.1302H170.85V65.0002H167.77V50.1302Z" fill="#006EEB"/>
<path d="M175.38 52.6402H173.63V50.1302H175.38V46.4302H178.48V50.1302H182.1V52.6402H178.48V60.8702C178.48 61.9802 178.91 62.4402 180.21 62.4402H182.1V65.0002H179.67C177.03 65.0002 175.38 63.8902 175.38 60.8702V52.6402Z" fill="#006EEB"/>
<path d="M195.14 50.1299H198.33L189.21 71.9899H186.03L189.05 64.7599L183.19 50.1299H186.62L190.8 61.4699L195.15 50.1299H195.14Z" fill="#006EEB"/>
</g>
<defs>
<clipPath id="clip0_1295_1069">
<rect width="200" height="72" fill="white"/>
</clipPath>
</defs>
</svg>
