<svg width="1036" height="171" viewBox="0 0 1036 171" fill="none" xmlns="http://www.w3.org/2000/svg">
<path d="M134.607 169.128C134.607 169.981 133.919 170.669 133.066 170.669C129.18 170.669 119.019 170.669 115.201 170.669C114.382 170.669 113.718 170.008 113.718 169.19C113.718 155.872 113.718 56.9007 113.718 43.7027C113.718 42.9013 114.369 42.2506 115.173 42.2506C118.968 42.2506 129.169 42.2506 133.066 42.2506C133.919 42.2506 134.607 42.9425 134.607 43.7952C134.607 46.7882 134.607 53.0857 134.607 53.0857C137.392 49.2195 140.833 46.0793 144.929 43.6581C149.028 41.237 153.819 40.0247 159.301 40.0247C165.558 40.0247 171.404 41.1959 176.835 43.5348C182.266 45.8772 187.047 49.1134 191.177 53.2536C195.303 57.3904 198.529 62.171 200.851 67.592C203.173 73.0163 204.333 78.8379 204.333 85.0568C204.333 91.2791 203.173 97.1281 200.851 102.607C198.529 108.086 195.303 112.894 191.177 117.035C187.047 121.171 182.266 124.411 176.835 126.75C171.404 129.092 165.558 130.26 159.301 130.26C153.819 130.26 149.028 129.041 144.929 126.599C140.833 124.161 137.392 121.028 134.607 117.203V169.128ZM159.048 60.1265C154.685 60.1265 150.795 61.2532 147.374 63.5099C143.953 65.7632 141.265 68.77 139.313 72.5335C137.361 76.2936 136.385 80.468 136.385 85.0568C136.385 89.6422 137.357 93.8269 139.299 97.6076C141.241 101.388 143.922 104.402 147.343 106.648C150.764 108.895 154.668 110.018 159.048 110.018C163.424 110.018 167.435 108.905 171.075 106.679C174.715 104.453 177.619 101.453 179.79 97.6829C181.961 93.9125 183.047 89.7038 183.047 85.0568C183.047 80.509 181.972 76.3484 179.821 72.578C177.67 68.8076 174.78 65.7872 171.15 63.5236C167.52 61.26 163.486 60.1265 159.048 60.1265Z" fill="#171923"/>
<path d="M214.268 127.863C213.425 127.863 212.744 127.181 212.744 126.339C212.737 115.826 212.696 54.1507 212.689 43.7437C212.689 43.3464 212.843 42.9664 213.124 42.689C213.405 42.4082 213.782 42.2506 214.179 42.2506C218.038 42.2506 228.325 42.2506 232.133 42.2506C232.931 42.2506 233.582 42.8944 233.589 43.6957C233.592 44.4833 233.599 45.4935 233.609 46.4695C233.613 47.0483 233.955 47.5723 234.483 47.8086C235.014 48.0449 235.63 47.9524 236.068 47.5723C238.431 45.5313 241.116 43.8567 244.112 42.5383C248.184 40.7473 252.537 39.8535 257.167 39.8535C259.759 39.8535 262.351 40.1548 264.94 40.7541C265.372 40.8569 265.738 41.1411 265.943 41.5349C266.149 41.9287 266.173 42.391 266.012 42.8019C264.437 46.8223 260.344 57.243 258.892 60.9449C258.605 61.6743 257.803 62.0544 257.057 61.8113C255.351 61.2668 253.636 60.9962 251.906 60.9962C248.544 60.9962 245.475 61.8147 242.698 63.4482C239.924 65.0816 237.719 67.2802 236.082 70.0472C234.448 72.8142 233.633 75.8893 233.633 79.2693V126.318C233.633 126.729 233.469 127.12 233.181 127.411C232.89 127.702 232.496 127.863 232.089 127.863C228.212 127.863 218.117 127.863 214.268 127.863Z" fill="#171923"/>
<path d="M307.63 130.089C299.753 130.089 292.579 128.065 286.1 124.01C279.621 119.959 274.457 114.521 270.604 107.703C266.752 100.881 264.824 93.3337 264.824 85.0567C264.824 78.7796 265.937 72.9135 268.163 67.4651C270.388 62.0133 273.457 57.2191 277.367 53.0823C281.278 48.9421 285.829 45.7059 291.021 43.3636C296.216 41.0246 301.753 39.8535 307.63 39.8535C315.506 39.8535 322.684 41.8808 329.163 45.9319C335.642 49.9865 340.806 55.4349 344.659 62.2839C348.511 69.1328 350.436 76.7249 350.436 85.0567C350.436 91.279 349.323 97.1006 347.097 102.522C344.871 107.946 341.806 112.723 337.895 116.863C333.985 121 329.447 124.24 324.283 126.579C319.119 128.921 313.568 130.089 307.63 130.089ZM307.63 109.199C311.784 109.199 315.516 108.09 318.835 105.871C322.15 103.652 324.766 100.71 326.677 97.0424C328.591 93.3714 329.546 89.3784 329.546 85.0567C329.546 80.622 328.557 76.5572 326.578 72.8587C324.598 69.1637 321.951 66.2186 318.636 64.0304C315.321 61.8387 311.654 60.7429 307.63 60.7429C303.517 60.7429 299.801 61.8626 296.486 64.0988C293.168 66.3384 290.545 69.3006 288.614 72.9854C286.682 76.6736 285.713 80.6973 285.713 85.0567C285.713 89.5907 286.713 93.6762 288.713 97.3164C290.713 100.957 293.374 103.847 296.699 105.987C300.027 108.131 303.671 109.199 307.63 109.199Z" fill="#171923"/>
<path d="M399.577 130.089C391.701 130.089 384.527 128.065 378.048 124.01C371.569 119.959 366.404 114.521 362.552 107.703C358.699 100.881 356.771 93.3337 356.771 85.0567C356.771 78.7796 357.884 72.9135 360.11 67.4651C362.336 62.0133 365.404 57.2191 369.315 53.0823C373.226 48.9421 377.777 45.7059 382.969 43.3636C388.164 41.0246 393.701 39.8535 399.577 39.8535C407.454 39.8535 414.631 41.8808 421.111 45.9319C427.59 49.9865 432.754 55.4349 436.606 62.2839C440.459 69.1328 442.383 76.7249 442.383 85.0567C442.383 91.279 441.271 97.1006 439.045 102.522C436.819 107.946 433.754 112.723 429.843 116.863C425.932 121 421.395 124.24 416.231 126.579C411.067 128.921 405.515 130.089 399.577 130.089ZM399.577 109.199C403.731 109.199 407.464 108.09 410.782 105.871C414.097 103.652 416.714 100.71 418.624 97.0424C420.539 93.3714 421.494 89.3784 421.494 85.0567C421.494 80.622 420.504 76.5572 418.525 72.8587C416.546 69.1637 413.899 66.2186 410.584 64.0304C407.269 61.8387 403.601 60.7429 399.577 60.7429C395.465 60.7429 391.749 61.8626 388.434 64.0988C385.116 66.3384 382.493 69.3006 380.561 72.9854C378.63 76.6736 377.661 80.6973 377.661 85.0567C377.661 89.5907 378.661 93.6762 380.661 97.3164C382.66 100.957 385.321 103.847 388.646 105.987C391.975 108.131 395.619 109.199 399.577 109.199Z" fill="#171923"/>
<path d="M499.774 61.6846C499.774 62.4893 499.124 63.1399 498.319 63.1399C495.182 63.1399 487.82 63.1399 484.649 63.1399C483.823 63.1399 483.152 63.8112 483.152 64.6365C483.149 73.3484 483.128 117.469 483.125 126.318C483.125 127.171 482.433 127.863 481.577 127.863C477.707 127.863 467.632 127.863 463.769 127.863C463.362 127.863 462.971 127.702 462.684 127.414C462.396 127.127 462.235 126.733 462.235 126.325C462.239 117.504 462.259 73.4066 462.263 64.6536C462.263 64.253 462.105 63.866 461.821 63.5852C461.537 63.3009 461.153 63.1399 460.752 63.1399C458.321 63.1399 453.575 63.1399 451.136 63.1399C450.291 63.1399 449.606 62.4551 449.606 61.6127C449.606 57.7362 449.606 47.562 449.606 43.7368C449.606 42.915 450.27 42.2505 451.088 42.2505C453.523 42.2505 458.338 42.2505 460.776 42.2505C461.17 42.2505 461.55 42.0931 461.828 41.8157C462.105 41.5349 462.263 41.1582 462.263 40.7643C462.256 36.0625 462.242 21.5598 462.235 16.858C462.235 16.4642 462.393 16.0841 462.67 15.8067C462.951 15.5259 463.328 15.3684 463.721 15.3684C467.557 15.3684 477.741 15.3684 481.608 15.3684C482.447 15.3684 483.125 16.0498 483.125 16.8854C483.131 21.6215 483.149 36.0933 483.152 40.7746C483.152 41.5896 483.816 42.2505 484.631 42.2505C487.765 42.2505 495.056 42.2505 498.24 42.2505C499.09 42.2505 499.774 42.9389 499.774 43.7847C499.774 47.6749 499.774 57.88 499.774 61.6846Z" fill="#171923"/>
<path fillRule="evenodd" clipRule="evenodd" d="M74.7787 37.1643C74.9102 36.6534 75.1754 36.1876 75.5473 35.8134C78.0861 33.2581 88.4908 22.7903 93.3482 17.9028C93.7697 17.4798 94.4046 17.3521 94.9561 17.5797C95.5083 17.8074 95.869 18.3454 95.869 18.9427C95.869 33.1995 95.869 85.2272 95.869 85.2272C95.869 92.4754 94.7337 99.2533 92.4639 105.56C90.1933 111.867 86.9445 117.417 82.7167 122.211C78.4888 127.006 73.4413 130.744 67.5756 133.427C61.7098 136.109 55.1813 137.451 47.9902 137.451C38.4015 137.451 30.0053 135.111 22.8006 130.43C15.5967 125.75 9.9954 119.458 5.99748 111.553C1.99957 103.648 0.000244141 94.8729 0.000244141 85.2272V18.9096C0.000244141 18.3183 0.357136 17.7848 0.904116 17.5594C1.4511 17.3333 2.08072 17.4603 2.49772 17.8803C7.33714 22.749 17.7455 33.2205 20.3099 35.8006C20.6893 36.183 20.9605 36.6594 21.0943 37.1808C23.0252 44.6905 38.0154 102.992 40.8539 114.033C41.1455 115.168 42.0801 116.023 43.2364 116.213C44.7519 116.443 46.3357 116.561 47.9902 116.561C49.5906 116.561 51.1233 116.455 52.587 116.241C53.7576 116.062 54.7088 115.201 55.0033 114.054C57.8697 102.932 72.8673 44.5996 74.7787 37.1643Z" fill="#171923"/>
<path fillRule="evenodd" clipRule="evenodd" d="M34.0399 21.791C33.937 21.2801 33.7003 20.8052 33.3547 20.4145C31.0518 17.8119 21.8028 7.3584 17.5066 2.50245C17.1136 2.05916 17.0182 1.42653 17.2609 0.886308C17.5043 0.346842 18.0415 -0.000274658 18.6336 -0.000274658C29.7092 -0.000274658 65.1419 -0.000274658 76.2889 -0.000274658C76.8892 -0.000274658 77.4347 0.352105 77.6811 0.899836C77.9275 1.44757 77.8306 2.08847 77.4324 2.53852C73.1377 7.39297 63.9796 17.7428 61.6406 20.386C61.2792 20.7947 61.0351 21.2936 60.9336 21.8301C59.7818 27.9393 52.4967 66.5878 49.3636 83.2075C49.2306 83.9146 48.6146 84.4285 47.8948 84.433C47.1757 84.4367 46.5536 83.9311 46.4116 83.2256C43.0591 66.5802 35.2443 27.774 34.0399 21.791Z" fill="#805AD5"/>
<path d="M572.925 123.147C567.418 123.147 562.084 122.291 556.919 120.583C551.758 118.874 547.253 116.432 543.406 113.263C539.56 110.093 536.861 106.3 535.311 101.887L542.84 99.0399C544.05 102.46 546.23 105.364 549.376 107.755C552.521 110.144 556.171 111.966 560.319 113.218C564.469 114.47 568.67 115.096 572.925 115.096C578.033 115.096 582.801 114.232 587.223 112.502C591.645 110.773 595.22 108.346 597.942 105.221C600.665 102.093 602.027 98.4137 602.027 94.1797C602.027 89.877 600.617 86.3437 597.793 83.5796C594.969 80.8156 591.335 78.6329 586.889 77.0287C582.44 75.4215 577.786 74.1812 572.925 73.3075C565.897 72.0463 559.594 70.3795 554.012 68.3132C548.433 66.2468 544.02 63.3216 540.782 59.5377C537.541 55.7569 535.922 50.691 535.922 44.3399C535.922 38.445 537.643 33.3312 541.08 28.9988C544.518 24.6663 549.054 21.3119 554.683 18.9354C560.316 16.559 566.395 15.3724 572.925 15.3724C578.242 15.3724 583.466 16.1982 588.594 17.8471C593.723 19.496 598.252 21.9112 602.182 25.0927C606.115 28.2742 608.951 32.1685 610.689 36.7813L603.011 39.5244C601.797 36.0745 599.624 33.1554 596.487 30.7641C593.353 28.3757 589.713 26.5598 585.568 25.3224C581.423 24.085 577.207 23.4677 572.925 23.4677C567.827 23.4379 563.077 24.2996 558.679 26.0558C554.281 27.8091 550.732 30.2483 548.028 33.3731C545.323 36.501 543.973 40.1565 543.973 44.3399C543.973 49.1703 545.237 52.9004 547.766 55.5303C550.297 58.1572 553.744 60.1371 558.106 61.4699C562.468 62.8028 567.409 63.9806 572.925 65.0033C579.485 66.1662 585.586 67.9284 591.233 70.2899C596.878 72.6485 601.431 75.7794 604.889 79.6825C608.348 83.5826 610.078 88.416 610.078 94.1797C610.078 100.045 608.354 105.149 604.904 109.5C601.455 113.847 596.916 117.21 591.284 119.584C585.654 121.96 579.533 123.147 572.925 123.147Z" fill="#171923"/>
<path d="M657.338 123.147C650.48 123.147 644.231 121.382 638.589 117.855C632.951 114.327 628.451 109.592 625.097 103.656C621.743 97.716 620.067 91.1443 620.067 83.9374C620.067 78.4719 621.036 73.3641 622.974 68.6202C624.912 63.8732 627.584 59.6988 630.986 56.0968C634.391 52.4919 638.354 49.6712 642.877 47.6346C647.4 45.5981 652.219 44.5785 657.338 44.5785C662.774 44.5785 667.78 45.631 672.357 47.7391C676.934 49.8472 680.897 52.814 684.24 56.6395C687.585 60.4651 690.144 64.9796 691.918 70.1767C693.692 75.3739 694.509 81.051 694.372 87.2023H628.475C629.033 92.5188 630.643 97.2747 633.312 101.47C635.983 105.665 639.397 108.975 643.554 111.408C647.713 113.838 652.308 115.067 657.338 115.096C662.864 115.096 667.84 113.644 672.271 110.743C676.699 107.842 680.238 103.84 682.892 98.7416L691.032 100.635C688.05 107.246 683.554 112.648 677.54 116.85C671.526 121.048 664.793 123.147 657.338 123.147ZM628.296 80.3593H686.276C685.987 75.2605 684.511 70.5613 681.839 66.2647C679.171 61.965 675.7 58.521 671.427 55.9329C667.154 53.3417 662.458 52.0477 657.338 52.0477C652.198 52.0477 647.523 53.312 643.309 55.8435C639.096 58.372 635.661 61.7801 633.007 66.0708C630.354 70.3586 628.782 75.1204 628.296 80.3593Z" fill="#171923"/>
<path d="M759.448 103.662L766.589 107.538C763.229 112.279 758.953 116.066 753.759 118.898C748.568 121.731 742.938 123.147 736.876 123.147C730.018 123.147 723.769 121.382 718.127 117.855C712.489 114.327 707.989 109.592 704.635 103.656C701.28 97.716 699.604 91.1443 699.604 83.9374C699.604 78.4719 700.574 73.3641 702.512 68.6202C704.45 63.8732 707.121 59.6988 710.524 56.0968C713.929 52.4919 717.892 49.6712 722.415 47.6346C726.938 45.5981 731.757 44.5785 736.876 44.5785C742.938 44.5785 748.568 45.9947 753.759 48.8274C758.953 51.66 763.229 55.4618 766.589 60.2326L759.448 64.064C756.624 60.3875 753.201 57.5609 749.176 55.59C745.151 53.6161 741.051 52.6292 736.876 52.6292C731.399 52.6292 726.449 54.0634 722.027 56.9318C717.602 59.7973 714.102 63.6019 711.523 68.3428C708.943 73.0838 707.655 78.2811 707.655 83.9374C707.655 89.6325 708.97 94.8416 711.597 99.5617C714.227 104.282 717.757 108.051 722.191 110.871C726.625 113.689 731.518 115.096 736.876 115.096C741.408 115.096 745.657 114.032 749.623 111.906C753.589 109.78 756.863 107.031 759.448 103.662Z" fill="#171923"/>
<path d="M774.074 92.3607V46.6657H782.124V91.1084C782.124 95.5214 783.204 99.5379 785.359 103.155C787.515 106.772 790.41 109.661 794.042 111.817C797.677 113.975 801.684 115.052 806.068 115.052C810.481 115.052 814.488 113.975 818.09 111.817C821.695 109.661 824.575 106.772 826.731 103.155C828.887 99.5379 829.966 95.5214 829.966 91.1084V46.6657H838.017L838.062 121.209H830.011L829.966 109.67C827.292 113.746 823.752 117.011 819.342 119.465C814.935 121.919 810.108 123.147 804.86 123.147C799.183 123.147 794.015 121.767 789.355 119.003C784.695 116.239 780.982 112.526 778.218 107.866C775.454 103.205 774.074 98.035 774.074 92.3607Z" fill="#171923"/>
<path d="M851.748 121.209V46.6657H859.798V58.056C862.47 53.962 866.018 50.691 870.443 48.2459C874.865 45.8009 879.701 44.5785 884.949 44.5785C887.851 44.5785 890.644 44.9512 893.328 45.6966L890.003 53.5834C887.877 52.9781 885.79 52.6738 883.742 52.6738C879.359 52.6738 875.351 53.7532 871.716 55.909C868.084 58.0648 865.189 60.9482 863.033 64.5561C860.878 68.164 859.798 72.1834 859.798 76.6172V121.209H851.748Z" fill="#171923"/>
<path d="M901.841 46.6657H909.891V121.209H901.841V46.6657ZM905.941 32.5768C904.548 32.5768 903.367 32.1177 902.398 31.1994C901.429 30.278 900.946 29.124 900.946 27.7315C900.946 26.3391 901.429 25.1852 902.398 24.2668C903.367 23.3454 904.548 22.8862 905.941 22.8862C907.282 22.8862 908.436 23.3454 909.405 24.2668C910.374 25.1852 910.861 26.3391 910.861 27.7315C910.861 29.124 910.389 30.278 909.444 31.1994C908.499 32.1177 907.333 32.5768 905.941 32.5768Z" fill="#171923"/>
<path d="M965.456 54.7163H946.597L946.492 121.209H938.442L938.546 54.7163H924.308V46.6657H938.546L938.442 23.259H946.492L946.597 46.6657H965.456V54.7163Z" fill="#171923"/>
<path d="M1026.89 46.6657H1035.36L994.618 158.481H986.045L999.612 121.209L972.881 46.6657H981.692L1003.64 110.072L1026.89 46.6657Z" fill="#171923"/>
</svg>
